<?xml version="1.0" standalone="no"?>
<!DOCTYPE svg PUBLIC "-//W3C//DTD SVG 20010904//EN"
 "http://www.w3.org/TR/2001/REC-SVG-20010904/DTD/svg10.dtd">
<svg version="1.0" xmlns="http://www.w3.org/2000/svg"
 width="800.000000pt" height="800.000000pt" viewBox="0 0 800.000000 800.000000"
 preserveAspectRatio="xMidYMid meet">

<g transform="translate(0.000000,800.000000) scale(0.100000,-0.100000)"
fill="#000000" stroke="none">
<path d="M3550 7645 c181 -412 304 -653 495 -970 109 -182 152 -261 142 -263
-26 -5 -310 94 -406 143 -52 26 -158 86 -235 133 -254 154 -357 214 -362 210
-4 -4 19 -218 31 -280 2 -17 0 -28 -6 -28 -6 0 -122 48 -258 106 -325 140
-483 205 -488 200 -2 -2 21 -81 52 -175 30 -94 55 -173 55 -176 0 -3 -19 -5
-41 -5 -55 0 -753 78 -776 87 -15 5 -16 4 -7 -8 70 -89 244 -332 242 -335 -4
-3 -189 -40 -558 -109 -135 -26 -246 -48 -248 -50 -2 -1 58 -55 132 -119 75
-64 136 -120 136 -124 0 -5 -91 -69 -202 -142 -249 -165 -418 -283 -418 -292
0 -7 119 -47 268 -88 45 -13 82 -27 82 -30 0 -3 -105 -154 -234 -336 l-234
-329 195 -3 195 -2 -6 -43 c-4 -24 -27 -133 -52 -243 -85 -377 -107 -484 -101
-491 4 -3 77 28 164 71 86 42 160 73 165 68 9 -9 72 -231 148 -519 29 -112 57
-203 60 -203 4 0 49 47 100 104 l93 104 116 -100 c184 -159 347 -275 559 -396
213 -123 751 -395 897 -454 163 -66 657 -287 800 -358 415 -206 745 -429 976
-662 287 -288 398 -508 509 -1010 12 -54 25 -98 29 -98 21 0 30 488 11 607
-22 137 -95 313 -232 555 -133 236 -381 495 -713 745 -66 49 -136 98 -155 108
-19 10 -62 36 -95 59 -69 46 -403 217 -580 296 -385 171 -801 397 -1034 563
-217 153 -431 341 -559 491 -305 356 -425 648 -392 956 18 174 44 269 104 393
115 235 307 414 549 513 237 96 396 119 776 112 211 -4 220 -6 355 -41 160
-43 264 -83 450 -173 257 -124 446 -257 658 -463 136 -131 226 -237 348 -411
147 -208 284 -327 680 -589 118 -79 235 -160 260 -180 25 -21 63 -49 85 -63
61 -38 243 -234 312 -334 33 -49 78 -125 100 -169 98 -195 98 -305 0 -517
l-27 -58 26 -6 c49 -12 296 94 443 191 201 132 360 349 398 542 21 106 12 127
-65 173 -182 106 -340 233 -463 373 -86 98 -170 223 -199 296 -19 50 -20 55
-5 78 23 34 61 46 128 39 l58 -6 -75 85 c-117 134 -178 219 -270 377 -47 81
-86 151 -86 154 0 3 -30 56 -67 117 -137 227 -305 423 -548 635 -218 192 -399
356 -470 427 -199 199 -709 786 -1035 1192 -63 79 -116 139 -118 135 -3 -10
173 -422 238 -557 89 -184 319 -559 392 -641 85 -94 140 -194 107 -194 -16 0
-110 92 -327 320 -357 375 -555 606 -849 993 -92 120 -170 220 -174 223 -4 2
19 -56 51 -131z m2306 -2427 c17 -18 66 -82 110 -142 43 -59 105 -138 137
-174 60 -69 66 -82 43 -82 -21 0 -179 121 -254 194 -106 103 -139 166 -112
217 16 28 42 23 76 -13z"/>
</g>
</svg>
